<svg width="18" height="25" viewBox="0 0 18 25" fill="none" xmlns="http://www.w3.org/2000/svg">
<path d="M3.59 0.683441C5.93 -1.18685 8.47 1.09676 9.04 4.65135C9.47 4.65135 9.89 4.77535 10.27 5.00268C10.79 4.38269 11.25 3.53538 11.07 2.58473C10.65 0.363114 13.06 -1.43485 15.35 1.63409C17.16 4.05203 14.95 6.67664 11.5 7.26563C11.5 7.70995 11.39 8.15427 11.16 8.54693C11.76 9.07392 12.58 9.54924 13.5 9.36325C15.63 8.92926 17.38 11.4092 14.41 13.7858C12.07 15.6561 9.53 13.3725 8.96 9.8179C8.53 9.8179 8.11 9.68357 7.74 9.45624C7.22 10.0762 6.75 10.9339 6.93 11.8845C7.35 14.0958 4.94 15.9041 2.65 12.8352C0.83 10.4069 3.05 7.78228 6.5 7.20363C6.5 6.7593 6.63 6.32531 6.85 5.93266C6.25 5.40567 5.43 4.92001 4.5 5.10601C2.37 5.54 0.62 3.06005 3.59 0.683441ZM2 16.5344H4C4.53043 16.5344 5.03914 16.7522 5.41421 17.1397C5.78929 17.5273 6 18.0529 6 18.601V24.8009H4V22.7343H2V24.8009H0V18.601C0 18.0529 0.210714 17.5273 0.585786 17.1397C0.960859 16.7522 1.46957 16.5344 2 16.5344ZM2 18.601V20.6677H4V18.601H2ZM9.93 16.5344H12L9.07 24.8009H7L9.93 16.5344ZM15 16.5344H18V18.601H15V22.7343H18V24.8009H15C14.4696 24.8009 13.9609 24.5832 13.5858 24.1956C13.2107 23.808 13 23.2824 13 22.7343V18.601C13 18.0529 13.2107 17.5273 13.5858 17.1397C13.9609 16.7522 14.4696 16.5344 15 16.5344Z" fill="#1081E9"/>
</svg>
