<svg width="20" height="20" viewBox="0 0 20 20" fill="none" xmlns="http://www.w3.org/2000/svg">
<path d="M9.74426 0C14.9107 0 19.1377 4.5 19.1377 10C19.1377 15.5 14.9107 20 9.74426 20C4.57787 20 0.35083 15.5 0.35083 10C0.35083 4.5 4.57787 0 9.74426 0ZM9.74426 2C7.95951 2 6.36263 2.6 5.14148 3.7L15.6621 14.9C16.6015 13.5 17.259 11.8 17.259 10C17.259 5.6 13.8774 2 9.74426 2ZM14.347 16.3L3.8264 5.1C2.79312 6.4 2.22952 8.1 2.22952 10C2.22952 14.4 5.61115 18 9.74426 18C11.529 18 13.1259 17.4 14.347 16.3Z" fill="#FF0000"/>
</svg>
