<svg width="157" height="49" viewBox="0 0 157 49" fill="none" xmlns="http://www.w3.org/2000/svg">
<line x1="21" y1="48.5" x2="148.004" y2="48.5" stroke="white"/>
<path d="M12.9291 14.6865H8.99163V17.3525H13.6127V19H6.94085V9.04688H13.5991V10.708H8.99163V13.0801H12.9291V14.6865ZM19.6721 19C19.581 18.8223 19.5149 18.6012 19.4739 18.3369C18.9953 18.8701 18.3733 19.1367 17.6076 19.1367C16.883 19.1367 16.2815 18.9271 15.803 18.5078C15.329 18.0885 15.092 17.5599 15.092 16.9219C15.092 16.138 15.3814 15.5365 15.9602 15.1172C16.5435 14.6979 17.3843 14.486 18.4826 14.4814H19.3918V14.0576C19.3918 13.7158 19.303 13.4424 19.1252 13.2373C18.952 13.0322 18.6763 12.9297 18.2981 12.9297C17.9654 12.9297 17.7033 13.0094 17.5119 13.1689C17.3251 13.3285 17.2317 13.5472 17.2317 13.8252H15.2561C15.2561 13.3968 15.3882 13.0003 15.6526 12.6357C15.9169 12.2712 16.2906 11.9863 16.7737 11.7812C17.2567 11.5716 17.7991 11.4668 18.4006 11.4668C19.3121 11.4668 20.0344 11.6969 20.5676 12.1572C21.1054 12.613 21.3742 13.2555 21.3742 14.085V17.291C21.3788 17.9928 21.4768 18.5238 21.6682 18.8838V19H19.6721ZM18.0383 17.626C18.33 17.626 18.5989 17.5622 18.845 17.4346C19.091 17.3024 19.2733 17.127 19.3918 16.9082V15.6367H18.6535C17.6646 15.6367 17.1382 15.9785 17.0744 16.6621L17.0676 16.7783C17.0676 17.0244 17.1542 17.2272 17.3274 17.3867C17.5005 17.5462 17.7375 17.626 18.0383 17.626ZM27.5977 16.9561C27.5977 16.7145 27.4769 16.5254 27.2354 16.3887C26.9984 16.2474 26.6156 16.1221 26.0869 16.0127C24.3278 15.6436 23.4483 14.8962 23.4483 13.7705C23.4483 13.1143 23.7194 12.5674 24.2617 12.1299C24.8086 11.6878 25.5218 11.4668 26.4014 11.4668C27.3402 11.4668 28.0899 11.6878 28.6504 12.1299C29.2155 12.5719 29.4981 13.1462 29.4981 13.8525H27.5225C27.5225 13.57 27.4313 13.3376 27.2491 13.1553C27.0668 12.9684 26.7819 12.875 26.3946 12.875C26.0619 12.875 25.8044 12.9502 25.6221 13.1006C25.4398 13.251 25.3487 13.4424 25.3487 13.6748C25.3487 13.8936 25.4512 14.0713 25.6563 14.208C25.8659 14.3402 26.2168 14.4564 26.709 14.5566C27.2012 14.6523 27.6159 14.7617 27.9532 14.8848C28.9968 15.2676 29.5186 15.9307 29.5186 16.874C29.5186 17.5485 29.2292 18.0954 28.6504 18.5146C28.0716 18.9294 27.3242 19.1367 26.4082 19.1367C25.7884 19.1367 25.237 19.0273 24.7539 18.8086C24.2754 18.5853 23.8994 18.2822 23.626 17.8994C23.3526 17.512 23.2158 17.0951 23.2158 16.6484H25.0889C25.1071 16.9993 25.237 17.2682 25.4785 17.4551C25.7201 17.6419 26.0436 17.7354 26.4492 17.7354C26.8275 17.7354 27.1123 17.6647 27.3037 17.5234C27.4997 17.3776 27.5977 17.1885 27.5977 16.9561ZM34.2586 16.2041L35.6258 11.6035H37.745L34.7713 20.1484L34.6073 20.5381C34.1652 21.5042 33.436 21.9873 32.4198 21.9873C32.1326 21.9873 31.841 21.944 31.5448 21.8574V20.3604L31.8455 20.3672C32.2192 20.3672 32.4972 20.3102 32.6795 20.1963C32.8664 20.0824 33.0122 19.8932 33.117 19.6289L33.3494 19.0205L30.7586 11.6035H32.8846L34.2586 16.2041ZM47.1061 16.1289L48.4459 9.04688H50.4899L48.2819 19H46.2174L44.5973 12.3418L42.9772 19H40.9127L38.7047 9.04688H40.7487L42.0953 16.1152L43.736 9.04688H45.4723L47.1061 16.1289ZM54.2592 19H52.2768V11.6035H54.2592V19ZM52.1606 9.68945C52.1606 9.39323 52.2586 9.14941 52.4545 8.95801C52.655 8.7666 52.9262 8.6709 53.268 8.6709C53.6052 8.6709 53.8741 8.7666 54.0746 8.95801C54.2752 9.14941 54.3754 9.39323 54.3754 9.68945C54.3754 9.99023 54.2729 10.2363 54.0678 10.4277C53.8673 10.6191 53.6007 10.7148 53.268 10.7148C52.9353 10.7148 52.6664 10.6191 52.4614 10.4277C52.2608 10.2363 52.1606 9.99023 52.1606 9.68945ZM58.4114 11.6035L58.4729 12.458C59.0015 11.7972 59.7102 11.4668 60.5989 11.4668C61.3827 11.4668 61.966 11.6969 62.3489 12.1572C62.7317 12.6175 62.9276 13.3057 62.9367 14.2217V19H60.9612V14.2695C60.9612 13.8503 60.87 13.5472 60.6877 13.3604C60.5054 13.1689 60.2024 13.0732 59.7785 13.0732C59.2226 13.0732 58.8056 13.3102 58.5276 13.7842V19H56.552V11.6035H58.4114ZM64.8535 15.2471C64.8535 14.1123 65.1224 13.1986 65.6602 12.5059C66.2025 11.8132 66.9317 11.4668 67.8477 11.4668C68.6589 11.4668 69.2901 11.7448 69.7412 12.3008L69.8233 11.6035H71.6143V18.7539C71.6143 19.401 71.4662 19.9639 71.17 20.4424C70.8783 20.9209 70.4659 21.2855 69.9326 21.5361C69.3994 21.7868 68.7751 21.9121 68.0596 21.9121C67.5173 21.9121 66.9886 21.8027 66.4737 21.584C65.9587 21.3698 65.569 21.0918 65.3047 20.75L66.1797 19.5469C66.6719 20.0983 67.2689 20.374 67.9707 20.374C68.4948 20.374 68.9027 20.2327 69.1944 19.9502C69.486 19.6722 69.6319 19.2757 69.6319 18.7607V18.3643C69.1761 18.8792 68.5769 19.1367 67.834 19.1367C66.9453 19.1367 66.2253 18.7904 65.6739 18.0977C65.127 17.4004 64.8535 16.4775 64.8535 15.3291V15.2471ZM66.8291 15.3906C66.8291 16.0605 66.9636 16.5869 67.2325 16.9697C67.5013 17.348 67.8705 17.5371 68.3399 17.5371C68.9414 17.5371 69.3721 17.3115 69.6319 16.8604V13.75C69.3675 13.2988 68.9414 13.0732 68.3535 13.0732C67.8796 13.0732 67.5059 13.2669 67.2325 13.6543C66.9636 14.0417 66.8291 14.6204 66.8291 15.3906ZM77.8446 16.9561C77.8446 16.7145 77.7238 16.5254 77.4823 16.3887C77.2453 16.2474 76.8625 16.1221 76.3338 16.0127C74.5747 15.6436 73.6951 14.8962 73.6951 13.7705C73.6951 13.1143 73.9663 12.5674 74.5086 12.1299C75.0555 11.6878 75.7687 11.4668 76.6483 11.4668C77.5871 11.4668 78.3367 11.6878 78.8973 12.1299C79.4624 12.5719 79.7449 13.1462 79.7449 13.8525H77.7694C77.7694 13.57 77.6782 13.3376 77.4959 13.1553C77.3136 12.9684 77.0288 12.875 76.6414 12.875C76.3088 12.875 76.0513 12.9502 75.869 13.1006C75.6867 13.251 75.5955 13.4424 75.5955 13.6748C75.5955 13.8936 75.6981 14.0713 75.9032 14.208C76.1128 14.3402 76.4637 14.4564 76.9559 14.5566C77.4481 14.6523 77.8628 14.7617 78.2 14.8848C79.2436 15.2676 79.7655 15.9307 79.7655 16.874C79.7655 17.5485 79.4761 18.0954 78.8973 18.5146C78.3185 18.9294 77.5711 19.1367 76.6551 19.1367C76.0353 19.1367 75.4839 19.0273 75.0008 18.8086C74.5223 18.5853 74.1463 18.2822 73.8729 17.8994C73.5994 17.512 73.4627 17.0951 73.4627 16.6484H75.3358C75.354 16.9993 75.4839 17.2682 75.7254 17.4551C75.967 17.6419 76.2905 17.7354 76.6961 17.7354C77.0744 17.7354 77.3592 17.6647 77.5506 17.5234C77.7466 17.3776 77.8446 17.1885 77.8446 16.9561Z" fill="white"/>
<path d="M93.935 17.7422C93.5658 18.1842 93.044 18.5283 92.3696 18.7744C91.6951 19.016 90.9477 19.1367 90.1274 19.1367C89.266 19.1367 88.5095 18.9499 87.8578 18.5762C87.2107 18.1979 86.7094 17.651 86.3539 16.9355C86.003 16.2201 85.823 15.3792 85.8139 14.4131V13.7363C85.8139 12.7428 85.9802 11.8838 86.3129 11.1592C86.6502 10.43 87.1332 9.87402 87.7621 9.49121C88.3956 9.10384 89.1362 8.91016 89.9838 8.91016C91.1642 8.91016 92.087 9.19271 92.7524 9.75781C93.4177 10.3184 93.8119 11.1364 93.935 12.2119H91.9389C91.8478 11.6423 91.645 11.2253 91.3305 10.9609C91.0206 10.6966 90.5922 10.5645 90.0453 10.5645C89.3481 10.5645 88.8172 10.8265 88.4526 11.3506C88.088 11.8747 87.9034 12.654 87.8989 13.6885V14.3242C87.8989 15.3678 88.0971 16.1562 88.4936 16.6895C88.8901 17.2227 89.4711 17.4893 90.2367 17.4893C91.0069 17.4893 91.5561 17.3252 91.8842 16.9971V15.2812H90.018V13.7705H93.935V17.7422ZM100.015 15.5342H96.1662V13.9414H100.015V15.5342ZM109.923 10.708H106.874V19H104.823V10.708H101.815V9.04688H109.923V10.708ZM119.783 14.249C119.783 15.2288 119.61 16.0879 119.264 16.8262C118.917 17.5645 118.42 18.1341 117.773 18.5352C117.131 18.9362 116.392 19.1367 115.558 19.1367C114.734 19.1367 113.998 18.9385 113.35 18.542C112.703 18.1455 112.202 17.5804 111.847 16.8467C111.491 16.1084 111.311 15.2607 111.306 14.3037V13.8115C111.306 12.8317 111.482 11.9704 111.833 11.2275C112.188 10.4801 112.687 9.9082 113.33 9.51172C113.977 9.11068 114.715 8.91016 115.545 8.91016C116.374 8.91016 117.11 9.11068 117.753 9.51172C118.4 9.9082 118.899 10.4801 119.25 11.2275C119.605 11.9704 119.783 12.8294 119.783 13.8047V14.249ZM117.705 13.7979C117.705 12.7542 117.518 11.9613 117.144 11.4189C116.771 10.8766 116.237 10.6055 115.545 10.6055C114.857 10.6055 114.326 10.8743 113.952 11.4121C113.578 11.9453 113.389 12.7292 113.385 13.7637V14.249C113.385 15.2653 113.571 16.0537 113.945 16.6143C114.319 17.1748 114.857 17.4551 115.558 17.4551C116.247 17.4551 116.775 17.1862 117.144 16.6484C117.514 16.1061 117.7 15.3177 117.705 14.2832V13.7979ZM129.506 9.04688V15.6025C129.506 16.6917 129.165 17.5531 128.481 18.1865C127.802 18.82 126.872 19.1367 125.692 19.1367C124.53 19.1367 123.607 18.8291 122.923 18.2139C122.24 17.5986 121.891 16.7533 121.878 15.6777V9.04688H123.928V15.6162C123.928 16.2679 124.083 16.7441 124.393 17.0449C124.708 17.3411 125.141 17.4893 125.692 17.4893C126.845 17.4893 127.431 16.8831 127.449 15.6709V9.04688H129.506ZM135.573 15.3564H133.939V19H131.888V9.04688H135.586C136.762 9.04688 137.669 9.30892 138.307 9.83301C138.945 10.3571 139.264 11.0977 139.264 12.0547C139.264 12.7337 139.116 13.3011 138.82 13.7568C138.528 14.208 138.084 14.568 137.487 14.8369L139.64 18.9043V19H137.439L135.573 15.3564ZM133.939 13.6953H135.593C136.108 13.6953 136.507 13.5654 136.789 13.3057C137.072 13.0413 137.213 12.679 137.213 12.2188C137.213 11.7493 137.079 11.3802 136.81 11.1113C136.546 10.8424 136.138 10.708 135.586 10.708H133.939V13.6953Z" fill="#1DC4E7"/>
<path d="M23.4969 33.8926H20.8836V41H19.1258V33.8926H16.5477V32.4688H23.4969V33.8926ZM29.3692 36.248C29.1387 36.2168 28.9356 36.2012 28.7598 36.2012C28.1192 36.2012 27.6992 36.418 27.5 36.8516V41H25.8067V34.6602H27.4063L27.4531 35.416C27.793 34.834 28.2637 34.543 28.8653 34.543C29.0528 34.543 29.2285 34.5684 29.3926 34.6191L29.3692 36.248ZM35.4875 41C35.4094 40.8477 35.3528 40.6582 35.3176 40.4316C34.9074 40.8887 34.3742 41.1172 33.718 41.1172C33.0969 41.1172 32.5813 40.9375 32.1711 40.5781C31.7649 40.2188 31.5617 39.7656 31.5617 39.2188C31.5617 38.5469 31.8098 38.0312 32.3059 37.6719C32.8059 37.3125 33.5266 37.1309 34.468 37.127H35.2473V36.7637C35.2473 36.4707 35.1711 36.2363 35.0188 36.0605C34.8703 35.8848 34.634 35.7969 34.3098 35.7969C34.0246 35.7969 33.8 35.8652 33.636 36.002C33.4758 36.1387 33.3957 36.3262 33.3957 36.5645H31.7024C31.7024 36.1973 31.8156 35.8574 32.0422 35.5449C32.2688 35.2324 32.5891 34.9883 33.0031 34.8125C33.4172 34.6328 33.8821 34.543 34.3977 34.543C35.1789 34.543 35.7981 34.7402 36.2551 35.1348C36.716 35.5254 36.9465 36.0762 36.9465 36.7871V39.5352C36.9504 40.1367 37.0344 40.5918 37.1985 40.9004V41H35.4875ZM34.0871 39.8223C34.3371 39.8223 34.5676 39.7676 34.7785 39.6582C34.9895 39.5449 35.1457 39.3945 35.2473 39.207V38.1172H34.6145C33.7668 38.1172 33.3156 38.4102 33.261 38.9961L33.2551 39.0957C33.2551 39.3066 33.3293 39.4805 33.4778 39.6172C33.6262 39.7539 33.8293 39.8223 34.0871 39.8223ZM41.6059 34.6602L41.6586 35.3926C42.1117 34.8262 42.7192 34.543 43.4809 34.543C44.1528 34.543 44.6528 34.7402 44.9809 35.1348C45.309 35.5293 45.477 36.1191 45.4848 36.9043V41H43.7914V36.9453C43.7914 36.5859 43.7133 36.3262 43.5571 36.166C43.4008 36.002 43.141 35.9199 42.7778 35.9199C42.3012 35.9199 41.9438 36.123 41.7055 36.5293V41H40.0121V34.6602H41.6059ZM52.0074 39.248C52.0074 39.041 51.9039 38.8789 51.6969 38.7617C51.4938 38.6406 51.1656 38.5332 50.7125 38.4395C49.2047 38.123 48.4508 37.4824 48.4508 36.5176C48.4508 35.9551 48.6832 35.4863 49.1481 35.1113C49.6168 34.7324 50.2281 34.543 50.9821 34.543C51.7867 34.543 52.4293 34.7324 52.9098 35.1113C53.3942 35.4902 53.6363 35.9824 53.6363 36.5879H51.943C51.943 36.3457 51.8649 36.1465 51.7086 35.9902C51.5524 35.8301 51.3082 35.75 50.9762 35.75C50.691 35.75 50.4703 35.8145 50.3141 35.9434C50.1578 36.0723 50.0797 36.2363 50.0797 36.4355C50.0797 36.623 50.1676 36.7754 50.3434 36.8926C50.5231 37.0059 50.8238 37.1055 51.2457 37.1914C51.6676 37.2734 52.0231 37.3672 52.3121 37.4727C53.2067 37.8008 53.6539 38.3691 53.6539 39.1777C53.6539 39.7559 53.4059 40.2246 52.9098 40.584C52.4137 40.9395 51.7731 41.1172 50.9879 41.1172C50.4567 41.1172 49.984 41.0234 49.5699 40.8359C49.1598 40.6445 48.8375 40.3848 48.6031 40.0566C48.3688 39.7246 48.2516 39.3672 48.2516 38.9844H49.8571C49.8727 39.2852 49.984 39.5156 50.191 39.6758C50.3981 39.8359 50.6754 39.916 51.0231 39.916C51.3473 39.916 51.5914 39.8555 51.7555 39.7344C51.9235 39.6094 52.0074 39.4473 52.0074 39.248ZM57.0125 41V35.9023H56.0692V34.6602H57.0125V34.1211C57.0125 33.4102 57.2156 32.8594 57.6219 32.4688C58.0321 32.0742 58.6043 31.877 59.3387 31.877C59.5731 31.877 59.8602 31.916 60.2 31.9941L60.1824 33.3066C60.0418 33.2715 59.8699 33.2539 59.6668 33.2539C59.0301 33.2539 58.7117 33.5527 58.7117 34.1504V34.6602H59.9715V35.9023H58.7117V41H57.0125ZM65.4278 41.1172C64.4981 41.1172 63.7403 40.832 63.1543 40.2617C62.5723 39.6914 62.2813 38.9316 62.2813 37.9824V37.8184C62.2813 37.1816 62.4043 36.6133 62.6504 36.1133C62.8965 35.6094 63.2442 35.2227 63.6934 34.9531C64.1465 34.6797 64.6621 34.543 65.2403 34.543C66.1074 34.543 66.7891 34.8164 67.2852 35.3633C67.7852 35.9102 68.0352 36.6855 68.0352 37.6895V38.3809H63.9981C64.0528 38.7949 64.2168 39.127 64.4903 39.377C64.7676 39.627 65.1172 39.752 65.5391 39.752C66.1914 39.752 66.7012 39.5156 67.0684 39.043L67.9004 39.9746C67.6465 40.334 67.3028 40.6152 66.8692 40.8184C66.4356 41.0176 65.9551 41.1172 65.4278 41.1172ZM65.2344 35.9141C64.8985 35.9141 64.625 36.0273 64.4141 36.2539C64.2071 36.4805 64.0742 36.8047 64.0156 37.2266H66.3711V37.0918C66.3633 36.7168 66.2617 36.4277 66.0664 36.2246C65.8711 36.0176 65.5938 35.9141 65.2344 35.9141ZM74.3645 36.248C74.134 36.2168 73.9309 36.2012 73.7551 36.2012C73.1145 36.2012 72.6945 36.418 72.4953 36.8516V41H70.802V34.6602H72.4016L72.4485 35.416C72.7883 34.834 73.259 34.543 73.8606 34.543C74.0481 34.543 74.2238 34.5684 74.3879 34.6191L74.3645 36.248ZM80.4184 39.248C80.4184 39.041 80.3149 38.8789 80.1078 38.7617C79.9047 38.6406 79.5766 38.5332 79.1235 38.4395C77.6156 38.123 76.8617 37.4824 76.8617 36.5176C76.8617 35.9551 77.0942 35.4863 77.559 35.1113C78.0278 34.7324 78.6391 34.543 79.393 34.543C80.1977 34.543 80.8403 34.7324 81.3207 35.1113C81.8051 35.4902 82.0473 35.9824 82.0473 36.5879H80.3539C80.3539 36.3457 80.2758 36.1465 80.1196 35.9902C79.9633 35.8301 79.7192 35.75 79.3871 35.75C79.102 35.75 78.8813 35.8145 78.725 35.9434C78.5688 36.0723 78.4906 36.2363 78.4906 36.4355C78.4906 36.623 78.5785 36.7754 78.7543 36.8926C78.934 37.0059 79.2348 37.1055 79.6567 37.1914C80.0785 37.2734 80.434 37.3672 80.7231 37.4727C81.6176 37.8008 82.0649 38.3691 82.0649 39.1777C82.0649 39.7559 81.8168 40.2246 81.3207 40.584C80.8246 40.9395 80.184 41.1172 79.3988 41.1172C78.8676 41.1172 78.3949 41.0234 77.9809 40.8359C77.5707 40.6445 77.2485 40.3848 77.0141 40.0566C76.7797 39.7246 76.6625 39.3672 76.6625 38.9844H78.268C78.2836 39.2852 78.3949 39.5156 78.602 39.6758C78.809 39.8359 79.0863 39.916 79.434 39.916C79.7582 39.916 80.0024 39.8555 80.1664 39.7344C80.3344 39.6094 80.4184 39.4473 80.4184 39.248ZM89.5145 38.7031C89.5145 38.3086 89.6238 37.9434 89.8426 37.6074C90.0653 37.2715 90.4715 36.8984 91.0613 36.4883C90.8074 36.1484 90.6082 35.8301 90.4637 35.5332C90.3192 35.2324 90.2469 34.9199 90.2469 34.5957C90.2469 33.9316 90.4559 33.3926 90.8738 32.9785C91.2957 32.5605 91.8621 32.3516 92.5731 32.3516C93.2098 32.3516 93.7313 32.541 94.1375 32.9199C94.5477 33.2988 94.7528 33.7715 94.7528 34.3379C94.7528 35.0176 94.409 35.6172 93.7215 36.1367L93.0653 36.6113L94.536 38.3223C94.7664 37.8691 94.8817 37.3691 94.8817 36.8223H96.3231C96.3231 37.9316 96.0672 38.8301 95.5555 39.5176L96.8328 41H94.911L94.4715 40.4961C93.8426 40.9102 93.1199 41.1172 92.3035 41.1172C91.4598 41.1172 90.784 40.8965 90.2762 40.4551C89.7684 40.0098 89.5145 39.4258 89.5145 38.7031ZM92.3856 39.7578C92.7918 39.7578 93.1766 39.6445 93.5399 39.418L91.8582 37.4727L91.7352 37.5605C91.3875 37.8574 91.2137 38.207 91.2137 38.6094C91.2137 38.9492 91.3211 39.2266 91.536 39.4414C91.7547 39.6523 92.0379 39.7578 92.3856 39.7578ZM91.7645 34.5723C91.7645 34.8652 91.9363 35.2344 92.2801 35.6797L92.7313 35.3809C92.9617 35.2324 93.1199 35.0879 93.2059 34.9473C93.2957 34.8066 93.3406 34.6387 93.3406 34.4434C93.3406 34.248 93.2684 34.0781 93.1238 33.9336C92.9793 33.7891 92.7938 33.7168 92.5672 33.7168C92.325 33.7168 92.1297 33.7949 91.9813 33.9512C91.8367 34.1074 91.7645 34.3145 91.7645 34.5723ZM110.394 33.8926H107.78V41H106.023V33.8926H103.445V32.4688H110.394V33.8926ZM111.608 37.7715C111.608 37.1426 111.729 36.582 111.971 36.0898C112.213 35.5977 112.561 35.2168 113.014 34.9473C113.471 34.6777 114 34.543 114.602 34.543C115.457 34.543 116.155 34.8047 116.694 35.3281C117.237 35.8516 117.539 36.5625 117.602 37.4609L117.614 37.8945C117.614 38.8672 117.342 39.6484 116.799 40.2383C116.256 40.8242 115.528 41.1172 114.614 41.1172C113.7 41.1172 112.969 40.8242 112.422 40.2383C111.879 39.6523 111.608 38.8555 111.608 37.8477V37.7715ZM113.301 37.8945C113.301 38.4961 113.414 38.957 113.641 39.2773C113.868 39.5938 114.192 39.752 114.614 39.752C115.024 39.752 115.344 39.5957 115.575 39.2832C115.805 38.9668 115.92 38.4629 115.92 37.7715C115.92 37.1816 115.805 36.7246 115.575 36.4004C115.344 36.0762 115.02 35.9141 114.602 35.9141C114.188 35.9141 113.868 36.0762 113.641 36.4004C113.414 36.7207 113.301 37.2188 113.301 37.8945ZM124.254 40.3555C123.836 40.8633 123.257 41.1172 122.519 41.1172C121.839 41.1172 121.32 40.9219 120.961 40.5312C120.605 40.1406 120.423 39.5684 120.416 38.8145V34.6602H122.109V38.7559C122.109 39.416 122.41 39.7461 123.011 39.7461C123.586 39.7461 123.98 39.5469 124.195 39.1484V34.6602H125.894V41H124.3L124.254 40.3555ZM132.534 36.248C132.304 36.2168 132.1 36.2012 131.925 36.2012C131.284 36.2012 130.864 36.418 130.665 36.8516V41H128.972V34.6602H130.571L130.618 35.416C130.958 34.834 131.429 34.543 132.03 34.543C132.218 34.543 132.393 34.5684 132.557 34.6191L132.534 36.248ZM138.588 39.248C138.588 39.041 138.484 38.8789 138.277 38.7617C138.074 38.6406 137.746 38.5332 137.293 38.4395C135.785 38.123 135.031 37.4824 135.031 36.5176C135.031 35.9551 135.264 35.4863 135.729 35.1113C136.197 34.7324 136.809 34.543 137.563 34.543C138.367 34.543 139.01 34.7324 139.49 35.1113C139.975 35.4902 140.217 35.9824 140.217 36.5879H138.523C138.523 36.3457 138.445 36.1465 138.289 35.9902C138.133 35.8301 137.889 35.75 137.557 35.75C137.272 35.75 137.051 35.8145 136.895 35.9434C136.738 36.0723 136.66 36.2363 136.66 36.4355C136.66 36.623 136.748 36.7754 136.924 36.8926C137.104 37.0059 137.404 37.1055 137.826 37.1914C138.248 37.2734 138.604 37.3672 138.893 37.4727C139.787 37.8008 140.234 38.3691 140.234 39.1777C140.234 39.7559 139.986 40.2246 139.49 40.584C138.994 40.9395 138.354 41.1172 137.568 41.1172C137.037 41.1172 136.564 41.0234 136.15 40.8359C135.74 40.6445 135.418 40.3848 135.184 40.0566C134.949 39.7246 134.832 39.3672 134.832 38.9844H136.438C136.453 39.2852 136.564 39.5156 136.772 39.6758C136.979 39.8359 137.256 39.916 137.604 39.916C137.928 39.916 138.172 39.8555 138.336 39.7344C138.504 39.6094 138.588 39.4473 138.588 39.248Z" fill="white"/>
<line x1="2.5" y1="26.5" x2="153.5" y2="26.5" stroke="#F79F1A" stroke-width="5" stroke-linecap="round"/>
<path d="M4.84936 28.2385L4.08786 26.3891L0.389144 27.9121L1.15064 29.7615L4.84936 28.2385ZM8.15064 46.7615C8.57121 47.7829 9.74013 48.2699 10.7615 47.8494C11.7829 47.4288 12.2699 46.2599 11.8494 45.2385L8.15064 46.7615ZM1.15064 29.7615L8.15064 46.7615L11.8494 45.2385L4.84936 28.2385L1.15064 29.7615Z" fill="#F79F1A"/>
<path d="M154 27L143 3.00001" stroke="#F79F1A" stroke-width="4" stroke-linecap="round"/>
</svg>
