<svg width="21" height="23" viewBox="0 0 21 23" fill="none" xmlns="http://www.w3.org/2000/svg">
<path d="M11 1C11 0.723858 10.7761 0.5 10.5 0.5C10.2239 0.5 10 0.723858 10 1H11ZM10 18L7.61325 23H13.3868L11 18H10ZM10 1L10 18.5H11L11 1H10Z" fill="#1081E9"/>
<rect x="0.75" y="1.75" width="19.5" height="7.5" fill="white" stroke="black" stroke-width="0.5"/>
<path d="M5.51172 4.3584L5.52637 4.69043C5.72819 4.43652 5.99186 4.30957 6.31738 4.30957C6.87565 4.30957 7.15723 4.62451 7.16211 5.25439V7H6.71045V5.25195C6.70882 5.06152 6.66488 4.92074 6.57861 4.82959C6.49398 4.73844 6.36133 4.69287 6.18066 4.69287C6.03418 4.69287 5.9056 4.73193 5.79492 4.81006C5.68424 4.88818 5.59798 4.99072 5.53613 5.11768V7H5.08447V4.3584H5.51172ZM9.47412 7C9.44808 6.94792 9.42692 6.85514 9.41064 6.72168C9.20068 6.93978 8.95003 7.04883 8.65869 7.04883C8.39827 7.04883 8.18424 6.97559 8.0166 6.8291C7.85059 6.68099 7.76758 6.49382 7.76758 6.26758C7.76758 5.99251 7.87174 5.7793 8.08008 5.62793C8.29004 5.47493 8.58464 5.39844 8.96387 5.39844H9.40332V5.19092C9.40332 5.03304 9.35612 4.90771 9.26172 4.81494C9.16732 4.72054 9.02816 4.67334 8.84424 4.67334C8.68311 4.67334 8.54801 4.71403 8.43896 4.79541C8.32992 4.87679 8.27539 4.97526 8.27539 5.09082H7.82129C7.82129 4.95898 7.86768 4.83203 7.96045 4.70996C8.05485 4.58626 8.1818 4.48861 8.34131 4.41699C8.50244 4.34538 8.67904 4.30957 8.87109 4.30957C9.17546 4.30957 9.4139 4.38607 9.58643 4.53906C9.75895 4.69043 9.84847 4.89958 9.85498 5.1665V6.38232C9.85498 6.62484 9.8859 6.81771 9.94775 6.96094V7H9.47412ZM8.72461 6.65576C8.86621 6.65576 9.00049 6.61914 9.12744 6.5459C9.25439 6.47266 9.34635 6.37744 9.40332 6.26025V5.71826H9.04932C8.49593 5.71826 8.21924 5.88021 8.21924 6.2041C8.21924 6.3457 8.26644 6.45638 8.36084 6.53613C8.45524 6.61589 8.5765 6.65576 8.72461 6.65576ZM10.9878 4.3584L11 4.65137C11.1937 4.4235 11.4549 4.30957 11.7837 4.30957C12.1532 4.30957 12.4046 4.45117 12.5381 4.73438C12.626 4.60742 12.7399 4.50488 12.8799 4.42676C13.0215 4.34863 13.1883 4.30957 13.3804 4.30957C13.9598 4.30957 14.2544 4.61637 14.2642 5.22998V7H13.8125V5.25684C13.8125 5.06803 13.7694 4.92725 13.6831 4.83447C13.5968 4.74007 13.452 4.69287 13.2485 4.69287C13.0809 4.69287 12.9417 4.74333 12.8311 4.84424C12.7204 4.94352 12.6561 5.0778 12.6382 5.24707V7H12.1841V5.26904C12.1841 4.88493 11.9961 4.69287 11.6201 4.69287C11.3239 4.69287 11.1213 4.81901 11.0122 5.07129V7H10.5605V4.3584H10.9878ZM16.0439 7.04883C15.6859 7.04883 15.3945 6.93164 15.1699 6.69727C14.9453 6.46126 14.833 6.14632 14.833 5.75244V5.66943C14.833 5.40739 14.8826 5.17383 14.9819 4.96875C15.0828 4.76204 15.2228 4.60091 15.4019 4.48535C15.5825 4.36816 15.7778 4.30957 15.9878 4.30957C16.3312 4.30957 16.5981 4.42269 16.7886 4.64893C16.979 4.87516 17.0742 5.19906 17.0742 5.62061V5.80859H15.2847C15.2912 6.06901 15.3669 6.27979 15.5117 6.44092C15.6582 6.60042 15.8438 6.68018 16.0684 6.68018C16.2279 6.68018 16.363 6.64762 16.4736 6.58252C16.5843 6.51742 16.6812 6.43115 16.7642 6.32373L17.04 6.53857C16.8187 6.87874 16.4867 7.04883 16.0439 7.04883ZM15.9878 4.68066C15.8055 4.68066 15.6525 4.7474 15.5288 4.88086C15.4051 5.0127 15.3286 5.19824 15.2993 5.4375H16.6226V5.40332C16.6095 5.17383 16.5477 4.99642 16.437 4.87109C16.3263 4.74414 16.1766 4.68066 15.9878 4.68066Z" fill="#1081E9"/>
</svg>
