<svg width="11" height="23" viewBox="0 0 11 23" fill="none" xmlns="http://www.w3.org/2000/svg">
<path d="M6.83926 10.3331V6.71652L9.03926 4.4329C9.83926 3.61659 9.98926 2.31462 9.42926 1.30197C8.97926 0.485656 8.15926 0 7.28926 0C7.07926 0 6.83926 0.0309994 6.64926 0.092998C5.56926 0.392658 4.83926 1.42597 4.83926 2.58328V5.9312L1.69926 9.2068C0.0392621 10.9531 -0.460738 13.5674 0.449262 15.851C1.21926 17.8143 2.89926 19.1679 4.83926 19.5192V20.1496C4.83926 20.4182 4.60926 20.6662 4.33926 20.6662H2.83926V22.7328H4.33926C5.68926 22.7328 6.83926 21.5859 6.83926 20.1496V19.6329C8.86926 19.6329 10.9993 17.649 10.9993 14.7247C10.9993 12.3481 9.07926 10.3331 6.83926 10.3331ZM6.83926 2.58328C6.83926 2.34562 6.94926 2.15962 7.15926 2.09762C7.37926 2.03562 7.60926 2.12862 7.71926 2.33528C7.83926 2.54194 7.79926 2.80027 7.63926 2.9656L6.83926 3.85425V2.58328ZM4.83926 10.8498C3.86926 11.5111 3.13926 12.6477 2.87926 13.7017L4.83926 14.239V17.3906C3.70926 17.0806 2.73926 16.2333 2.26926 15.0553C1.67926 13.5467 1.99926 11.8314 3.09926 10.6741L4.83926 8.78314V10.8498ZM6.83926 17.5663V12.3377C8.00926 12.3377 9.01926 13.4744 9.01926 14.7247C9.01926 16.533 7.74926 17.5663 6.83926 17.5663Z" fill="#1081E9"/>
</svg>
