<svg width="21" height="19" viewBox="0 0 21 19" fill="none" xmlns="http://www.w3.org/2000/svg">
<path d="M7.62149 3C8.58564 3 9.5103 3.42143 10.1921 4.17157C10.8738 4.92172 11.2568 5.93913 11.2568 7C11.2568 8.06087 10.8738 9.07828 10.1921 9.82843C9.5103 10.5786 8.58564 11 7.62149 11C6.65734 11 5.73268 10.5786 5.05092 9.82843C4.36917 9.07828 3.98616 8.06087 3.98616 7C3.98616 5.93913 4.36917 4.92172 5.05092 4.17157C5.73268 3.42143 6.65734 3 7.62149 3ZM7.62149 13C10.0481 13 14.8921 14.34 14.8921 17V19H0.35083V17C0.35083 14.34 5.19491 13 7.62149 13ZM14.674 3.36C16.5099 5.56 16.5099 8.61 14.674 10.63L13.1472 8.94C13.9106 7.76 13.9106 6.23 13.1472 5.05L14.674 3.36ZM17.6823 0C21.254 4.05 21.2267 10.11 17.6823 14L16.2009 12.37C18.7183 9.19 18.7183 4.65 16.2009 1.63L17.6823 0Z" fill="#1081E9"/>
</svg>
