<svg width="18" height="21" viewBox="0 0 18 21" fill="none" xmlns="http://www.w3.org/2000/svg">
<path d="M8.80492 19C7.06101 19 5.38853 18.2625 4.15541 16.9497C2.92228 15.637 2.22952 13.8565 2.22952 12C2.22952 10.1435 2.92228 8.36301 4.15541 7.05025C5.38853 5.7375 7.06101 5 8.80492 5C10.5488 5 12.2213 5.7375 13.4544 7.05025C14.6876 8.36301 15.3803 10.1435 15.3803 12C15.3803 13.8565 14.6876 15.637 13.4544 16.9497C12.2213 18.2625 10.5488 19 8.80492 19ZM15.4085 6.39L16.7424 4.97C16.3197 4.46 15.897 4 15.4179 3.56L14.084 5C12.628 3.74 10.7963 3 8.80492 3C6.56275 3 4.41242 3.94821 2.82697 5.63604C1.24153 7.32387 0.35083 9.61305 0.35083 12C0.35083 14.3869 1.24153 16.6761 2.82697 18.364C4.41242 20.0518 6.56275 21 8.80492 21C13.5016 21 17.259 16.97 17.259 12C17.259 9.88 16.5639 7.93 15.4085 6.39ZM7.86557 13H9.74426V7H7.86557V13ZM11.6229 0H5.98689V2H11.6229V0Z" fill="#FFD700"/>
</svg>
