<svg width="8" height="21" viewBox="0 0 8 21" fill="none" xmlns="http://www.w3.org/2000/svg">
<path d="M1.99927 0V2.06662H2.90927C2.64927 3.91625 0.999268 5.68321 -0.000732422 7.23317V12.1621C1.31927 13.3917 1.31927 15.541 -0.000732422 16.7706V18.5996C-0.000732422 19.7466 0.899268 20.6662 1.99927 20.6662H5.99927C7.10927 20.6662 7.99927 19.7466 7.99927 18.5996V16.7706C6.67927 15.541 6.67927 13.3917 7.99927 12.1621V7.23317C6.99927 5.68321 5.34927 3.91625 5.08927 2.06662H5.99927V0H1.99927ZM3.99927 4.6499C4.23927 5.16655 5.53927 6.71652 5.89927 7.14017L5.99927 7.23317V11.3664C5.34927 12.2654 4.99927 13.3504 4.99927 14.4663C4.99927 15.5823 5.34927 16.6673 5.99927 17.5663V18.5996H1.99927V17.5663C2.64927 16.6673 2.99927 15.5823 2.99927 14.4663C2.99927 13.3504 2.64927 12.2654 1.99927 11.3664V7.23317L2.09927 7.14017C2.45927 6.71652 3.75927 5.16655 3.99927 4.6499Z" fill="#1081E9"/>
</svg>
