<svg width="22" height="20" viewBox="0 0 22 20" fill="none" xmlns="http://www.w3.org/2000/svg">
<path d="M10.7993 3.09993C7.41927 3.09993 4.29927 4.25724 1.79927 6.19987L-0.000732422 3.71992C3.00927 1.38464 6.74927 0 10.7993 0C14.8493 0 18.5893 1.38464 21.5993 3.71992L19.7993 6.19987C17.2993 4.25724 14.1793 3.09993 10.7993 3.09993ZM16.1993 7.53284C14.5693 6.68552 12.7393 6.19987 10.7993 6.19987C8.09927 6.19987 5.60927 7.11951 3.59927 8.67981L5.39927 11.1598C6.89927 9.99212 8.76927 9.2998 10.7993 9.2998C11.7693 9.2998 12.6993 9.46513 13.5793 9.75446C14.1393 8.73148 15.0693 7.93583 16.1993 7.53284ZM7.19927 13.6397L10.7993 18.5996L11.7993 17.2253V14.673C11.7993 13.9497 12.0693 13.2367 12.4993 12.6684C11.9593 12.5031 11.3893 12.3997 10.7993 12.3997C9.44927 12.3997 8.19927 12.8647 7.19927 13.6397ZM21.7993 14.7763V18.3929C21.7993 19.0129 21.1993 19.6329 20.4993 19.6329H14.9993C14.3993 19.6329 13.7993 19.0129 13.7993 18.2896V14.673C13.7993 14.053 14.3993 13.433 14.9993 13.433V11.8831C14.9993 10.4364 16.3993 9.2998 17.7993 9.2998C19.1993 9.2998 20.5993 10.4364 20.5993 11.8831V13.433C21.1993 13.433 21.7993 14.053 21.7993 14.7763ZM19.2993 11.8831C19.2993 11.0564 18.5993 10.5398 17.7993 10.5398C16.9993 10.5398 16.2993 11.0564 16.2993 11.8831V13.433H19.2993V11.8831Z" fill="#1081E9"/>
</svg>
